# xmcd
#
# Track frame offsets: 
#        150
#        14631
#        28719
#        41603
#        56011
#        69662
#        82556
#        97000
#        109905
#        124159
#        138390
#        150666
#        163736
#        181484
#        195395
#        206772
#        221465
#        240137
#        255718
#        269534
#
# Disc length: 3765 seconds
#
# Revision: 2
# Processed by: cddbd v1.5.2PL0 Copyright (c) Steve Scherf et al.
# Submitted via: ExactAudioCopy v1.0b3
#
DISCID=1a0eb314
DTITLE=Woody Herman - Woody Herman (Quadromania)_CD4
DYEAR=2005
DGENRE=Jazz
TTITLE0=Four Brothers
TTITLE1=Everywhere
TTITLE2=Keen And Peachy
TTITLE3=Early Autumn
TTITLE4=Keeper of the Flame
TTITLE5=Lemon Drop
TTITLE6=More Moon
TTITLE7=Not Really the Blues
TTITLE8=Rhapsody in Wood
TTITLE9=Here Comes the Blues
TTITLE10=Life Ist Just a Bowl of Cherries
TTITLE11=Cohn's Alley
TTITLE12=Mulligantawny
TTITLE13=Why Not?
TTITLE14=Would He?
TTITLE15=Off Shore
TTITLE16=Hitting the Bottle
TTITLE17=It Happens To Me
TTITLE18=Strange
TTITLE19=Moten Stomp
EXTD=
EXTT0=
EXTT1=
EXTT2=
EXTT3=
EXTT4=
EXTT5=
EXTT6=
EXTT7=
EXTT8=
EXTT9=
EXTT10=
EXTT11=
EXTT12=
EXTT13=
EXTT14=
EXTT15=
EXTT16=
EXTT17=
EXTT18=
EXTT19=
PLAYORDER=
